<mxfile host="Electron" agent="Mozilla/5.0 (Windows NT 10.0; Win64; x64) AppleWebKit/537.36 (KHTML, like Gecko) draw.io/24.7.5 Chrome/126.0.6478.183 Electron/31.3.0 Safari/537.36" version="24.7.5">
  <diagram id="C5RBs43oDa-KdzZeNtuy" name="Page-1">
    <mxGraphModel dx="714" dy="420" grid="1" gridSize="10" guides="1" tooltips="1" connect="1" arrows="1" fold="1" page="1" pageScale="1" pageWidth="1654" pageHeight="1169" math="0" shadow="0">
      <root>
        <mxCell id="WIyWlLk6GJQsqaUBKTNV-0" />
        <mxCell id="WIyWlLk6GJQsqaUBKTNV-1" parent="WIyWlLk6GJQsqaUBKTNV-0" />
        <mxCell id="5VGqG5b2azhaQw180DVL-43" value="" style="group" vertex="1" connectable="0" parent="WIyWlLk6GJQsqaUBKTNV-1">
          <mxGeometry x="40" y="80" width="640" height="312" as="geometry" />
        </mxCell>
        <mxCell id="5VGqG5b2azhaQw180DVL-6" value="Creator" style="swimlane;fontStyle=1;align=center;verticalAlign=top;childLayout=stackLayout;horizontal=1;startSize=26;horizontalStack=0;resizeParent=1;resizeParentMax=0;resizeLast=0;collapsible=1;marginBottom=0;whiteSpace=wrap;html=1;" vertex="1" parent="5VGqG5b2azhaQw180DVL-43">
          <mxGeometry x="340" width="300" height="86" as="geometry" />
        </mxCell>
        <mxCell id="5VGqG5b2azhaQw180DVL-7" value="&amp;nbsp;" style="text;strokeColor=none;fillColor=none;align=left;verticalAlign=top;spacingLeft=4;spacingRight=4;overflow=hidden;rotatable=0;points=[[0,0.5],[1,0.5]];portConstraint=eastwest;whiteSpace=wrap;html=1;" vertex="1" parent="5VGqG5b2azhaQw180DVL-6">
          <mxGeometry y="26" width="300" height="26" as="geometry" />
        </mxCell>
        <mxCell id="5VGqG5b2azhaQw180DVL-8" value="" style="line;strokeWidth=1;fillColor=none;align=left;verticalAlign=middle;spacingTop=-1;spacingLeft=3;spacingRight=3;rotatable=0;labelPosition=right;points=[];portConstraint=eastwest;strokeColor=inherit;" vertex="1" parent="5VGqG5b2azhaQw180DVL-6">
          <mxGeometry y="52" width="300" height="8" as="geometry" />
        </mxCell>
        <mxCell id="5VGqG5b2azhaQw180DVL-10" value="+ creator(type: string,name: string): IProduct" style="text;strokeColor=none;fillColor=none;align=left;verticalAlign=top;spacingLeft=4;spacingRight=4;overflow=hidden;rotatable=0;points=[[0,0.5],[1,0.5]];portConstraint=eastwest;whiteSpace=wrap;html=1;" vertex="1" parent="5VGqG5b2azhaQw180DVL-6">
          <mxGeometry y="60" width="300" height="26" as="geometry" />
        </mxCell>
        <mxCell id="5VGqG5b2azhaQw180DVL-11" style="edgeStyle=orthogonalEdgeStyle;rounded=0;orthogonalLoop=1;jettySize=auto;html=1;dashed=1;endArrow=open;endFill=0;" edge="1" parent="5VGqG5b2azhaQw180DVL-43" target="5VGqG5b2azhaQw180DVL-16">
          <mxGeometry relative="1" as="geometry">
            <mxPoint x="340" y="39" as="sourcePoint" />
            <mxPoint x="250" y="39" as="targetPoint" />
            <Array as="points">
              <mxPoint x="340" y="40" />
            </Array>
          </mxGeometry>
        </mxCell>
        <mxCell id="5VGqG5b2azhaQw180DVL-16" value="IProduct" style="swimlane;fontStyle=0;childLayout=stackLayout;horizontal=1;startSize=26;fillColor=none;horizontalStack=0;resizeParent=1;resizeParentMax=0;resizeLast=0;collapsible=1;marginBottom=0;whiteSpace=wrap;html=1;" vertex="1" parent="5VGqG5b2azhaQw180DVL-43">
          <mxGeometry x="110" width="150" height="104" as="geometry" />
        </mxCell>
        <mxCell id="5VGqG5b2azhaQw180DVL-17" value="+ name: string" style="text;strokeColor=none;fillColor=none;align=left;verticalAlign=top;spacingLeft=4;spacingRight=4;overflow=hidden;rotatable=0;points=[[0,0.5],[1,0.5]];portConstraint=eastwest;whiteSpace=wrap;html=1;" vertex="1" parent="5VGqG5b2azhaQw180DVL-16">
          <mxGeometry y="26" width="150" height="26" as="geometry" />
        </mxCell>
        <mxCell id="5VGqG5b2azhaQw180DVL-18" value="+ fn1():vioid" style="text;strokeColor=none;fillColor=none;align=left;verticalAlign=top;spacingLeft=4;spacingRight=4;overflow=hidden;rotatable=0;points=[[0,0.5],[1,0.5]];portConstraint=eastwest;whiteSpace=wrap;html=1;" vertex="1" parent="5VGqG5b2azhaQw180DVL-16">
          <mxGeometry y="52" width="150" height="26" as="geometry" />
        </mxCell>
        <mxCell id="5VGqG5b2azhaQw180DVL-19" value="+ fn2(): void" style="text;strokeColor=none;fillColor=none;align=left;verticalAlign=top;spacingLeft=4;spacingRight=4;overflow=hidden;rotatable=0;points=[[0,0.5],[1,0.5]];portConstraint=eastwest;whiteSpace=wrap;html=1;" vertex="1" parent="5VGqG5b2azhaQw180DVL-16">
          <mxGeometry y="78" width="150" height="26" as="geometry" />
        </mxCell>
        <mxCell id="5VGqG5b2azhaQw180DVL-20" value="依赖" style="text;html=1;align=center;verticalAlign=middle;resizable=0;points=[];autosize=1;strokeColor=none;fillColor=none;" vertex="1" parent="5VGqG5b2azhaQw180DVL-43">
          <mxGeometry x="270" y="10" width="50" height="30" as="geometry" />
        </mxCell>
        <mxCell id="5VGqG5b2azhaQw180DVL-30" style="edgeStyle=orthogonalEdgeStyle;rounded=0;orthogonalLoop=1;jettySize=auto;html=1;exitX=0.25;exitY=0;exitDx=0;exitDy=0;dashed=1;endArrow=blockThin;endFill=0;" edge="1" parent="5VGqG5b2azhaQw180DVL-43">
          <mxGeometry relative="1" as="geometry">
            <mxPoint x="185.0344827586207" y="104" as="targetPoint" />
            <mxPoint x="80" y="200" as="sourcePoint" />
            <Array as="points">
              <mxPoint x="110" y="200" />
              <mxPoint x="110" y="151" />
              <mxPoint x="185" y="151" />
            </Array>
          </mxGeometry>
        </mxCell>
        <mxCell id="5VGqG5b2azhaQw180DVL-21" value="Product1" style="swimlane;fontStyle=1;align=center;verticalAlign=top;childLayout=stackLayout;horizontal=1;startSize=26;horizontalStack=0;resizeParent=1;resizeParentMax=0;resizeLast=0;collapsible=1;marginBottom=0;whiteSpace=wrap;html=1;" vertex="1" parent="5VGqG5b2azhaQw180DVL-43">
          <mxGeometry y="200" width="160" height="112" as="geometry" />
        </mxCell>
        <mxCell id="5VGqG5b2azhaQw180DVL-22" value="+ name: string" style="text;strokeColor=none;fillColor=none;align=left;verticalAlign=top;spacingLeft=4;spacingRight=4;overflow=hidden;rotatable=0;points=[[0,0.5],[1,0.5]];portConstraint=eastwest;whiteSpace=wrap;html=1;" vertex="1" parent="5VGqG5b2azhaQw180DVL-21">
          <mxGeometry y="26" width="160" height="26" as="geometry" />
        </mxCell>
        <mxCell id="5VGqG5b2azhaQw180DVL-23" value="" style="line;strokeWidth=1;fillColor=none;align=left;verticalAlign=middle;spacingTop=-1;spacingLeft=3;spacingRight=3;rotatable=0;labelPosition=right;points=[];portConstraint=eastwest;strokeColor=inherit;" vertex="1" parent="5VGqG5b2azhaQw180DVL-21">
          <mxGeometry y="52" width="160" height="8" as="geometry" />
        </mxCell>
        <mxCell id="5VGqG5b2azhaQw180DVL-28" value="+ fn1():vioid" style="text;strokeColor=none;fillColor=none;align=left;verticalAlign=top;spacingLeft=4;spacingRight=4;overflow=hidden;rotatable=0;points=[[0,0.5],[1,0.5]];portConstraint=eastwest;whiteSpace=wrap;html=1;" vertex="1" parent="5VGqG5b2azhaQw180DVL-21">
          <mxGeometry y="60" width="160" height="26" as="geometry" />
        </mxCell>
        <mxCell id="5VGqG5b2azhaQw180DVL-24" value="+ fn2():vioid" style="text;strokeColor=none;fillColor=none;align=left;verticalAlign=top;spacingLeft=4;spacingRight=4;overflow=hidden;rotatable=0;points=[[0,0.5],[1,0.5]];portConstraint=eastwest;whiteSpace=wrap;html=1;" vertex="1" parent="5VGqG5b2azhaQw180DVL-21">
          <mxGeometry y="86" width="160" height="26" as="geometry" />
        </mxCell>
        <mxCell id="5VGqG5b2azhaQw180DVL-39" style="edgeStyle=orthogonalEdgeStyle;rounded=0;orthogonalLoop=1;jettySize=auto;html=1;exitX=0.5;exitY=0;exitDx=0;exitDy=0;dashed=1;endArrow=blockThin;endFill=0;" edge="1" parent="5VGqG5b2azhaQw180DVL-43" source="5VGqG5b2azhaQw180DVL-31" target="5VGqG5b2azhaQw180DVL-16">
          <mxGeometry relative="1" as="geometry">
            <Array as="points">
              <mxPoint x="295" y="150" />
              <mxPoint x="185" y="150" />
            </Array>
          </mxGeometry>
        </mxCell>
        <mxCell id="5VGqG5b2azhaQw180DVL-31" value="Product2" style="swimlane;fontStyle=1;align=center;verticalAlign=top;childLayout=stackLayout;horizontal=1;startSize=26;horizontalStack=0;resizeParent=1;resizeParentMax=0;resizeLast=0;collapsible=1;marginBottom=0;whiteSpace=wrap;html=1;" vertex="1" parent="5VGqG5b2azhaQw180DVL-43">
          <mxGeometry x="215" y="200" width="160" height="112" as="geometry" />
        </mxCell>
        <mxCell id="5VGqG5b2azhaQw180DVL-32" value="+ name: string" style="text;strokeColor=none;fillColor=none;align=left;verticalAlign=top;spacingLeft=4;spacingRight=4;overflow=hidden;rotatable=0;points=[[0,0.5],[1,0.5]];portConstraint=eastwest;whiteSpace=wrap;html=1;" vertex="1" parent="5VGqG5b2azhaQw180DVL-31">
          <mxGeometry y="26" width="160" height="26" as="geometry" />
        </mxCell>
        <mxCell id="5VGqG5b2azhaQw180DVL-33" value="" style="line;strokeWidth=1;fillColor=none;align=left;verticalAlign=middle;spacingTop=-1;spacingLeft=3;spacingRight=3;rotatable=0;labelPosition=right;points=[];portConstraint=eastwest;strokeColor=inherit;" vertex="1" parent="5VGqG5b2azhaQw180DVL-31">
          <mxGeometry y="52" width="160" height="8" as="geometry" />
        </mxCell>
        <mxCell id="5VGqG5b2azhaQw180DVL-34" value="+ fn1():vioid" style="text;strokeColor=none;fillColor=none;align=left;verticalAlign=top;spacingLeft=4;spacingRight=4;overflow=hidden;rotatable=0;points=[[0,0.5],[1,0.5]];portConstraint=eastwest;whiteSpace=wrap;html=1;" vertex="1" parent="5VGqG5b2azhaQw180DVL-31">
          <mxGeometry y="60" width="160" height="26" as="geometry" />
        </mxCell>
        <mxCell id="5VGqG5b2azhaQw180DVL-35" value="+ fn2():vioid" style="text;strokeColor=none;fillColor=none;align=left;verticalAlign=top;spacingLeft=4;spacingRight=4;overflow=hidden;rotatable=0;points=[[0,0.5],[1,0.5]];portConstraint=eastwest;whiteSpace=wrap;html=1;" vertex="1" parent="5VGqG5b2azhaQw180DVL-31">
          <mxGeometry y="86" width="160" height="26" as="geometry" />
        </mxCell>
        <mxCell id="5VGqG5b2azhaQw180DVL-41" value="类实现接口" style="text;html=1;align=center;verticalAlign=middle;resizable=0;points=[];autosize=1;strokeColor=none;fillColor=none;" vertex="1" parent="5VGqG5b2azhaQw180DVL-43">
          <mxGeometry x="220" y="118" width="80" height="30" as="geometry" />
        </mxCell>
        <mxCell id="5VGqG5b2azhaQw180DVL-42" value="类实现接口" style="text;html=1;align=center;verticalAlign=middle;resizable=0;points=[];autosize=1;strokeColor=none;fillColor=none;" vertex="1" parent="5VGqG5b2azhaQw180DVL-43">
          <mxGeometry x="95" y="118" width="80" height="30" as="geometry" />
        </mxCell>
      </root>
    </mxGraphModel>
  </diagram>
</mxfile>
